{"title":"Once upon a Time in the West, C'era una Volta il West 1968 DVD9","uid":6059266,"size":2525957031,"categoryP":"video","categoryS":"movies","magnet":"?xt=urn:btih:8ded46c18d597d3d21b2502cc5f3d3c7912b0e7e&amp;dn=Once+upon+a+Time+in+the+West%2C+C%5C%27era+una+Volta+il+West+1968+DVD9&amp;tr=udp%3A%2F%2Ftracker.openbittorrent.com%3A80&amp;tr=udp%3A%2F%2Fopen.demonii.com%3A1337&amp;tr=udp%3A%2F%2Ftracker.coppersurfer.tk%3A6969&amp;tr=udp%3A%2F%2Fexodus.desync.com%3A6969","seeders":3,"leechers":1,"uploader":"Klambake","files":-1,"time":1293044073,"description":"With: Henry Fonda, Claudia Cardinale and Charles Bronson\n\nStory of a young woman, Mrs. McBain, who moves from New Orleans to frontier Utah, on the very edge of the American West. She arrives to find her new husband and family slaughtered, but by who? The prime suspect, coffee-lover Cheyenne, befriends her and offers to go after the real killer, assassin gang leader Frank, in her honor. He is accompanied by Harmonica on his quest to get even. Get-rich-quick subplots and intricate character histories intertwine with such artistic flair that this could in fact be the movie-to-end-all-movies.\n\nGeneral:\n\nComplete name                    : Once Upon A Time\\In The West.avi\nFormat                           : AVI\nFormat/Info                      : Audio Video Interleave\nFile size                        : 2.35 GiB\nDuration                         : 2h 38mn\nOverall bit rate                 : 2 124 Kbps\n\nVideo:\n\nFormat                           : MPEG-4 Visual\nFormat profile                   : Simple@L3\nFormat settings, BVOP            : No\nFormat settings, QPel            : No\nFormat settings, GMC             : No warppoints\nFormat settings, Matrix          : Default (H.263)\nCodec ID                         : XVID\nCodec ID/Hint                    : XviD\nDuration                         : 2h 38mn\nBit rate                         : 1 729 Kbps\nWidth                            : 720 pixels\nHeight                           : 576 pixels\nDisplay aspect ratio             : 5:4\nFrame rate                       : 25.000 fps\nStandard                         : PAL\nColor space                      : YUV\nChroma subsampling               : 4:2:0\nBit depth                        : 8 bits\nScan type                        : Progressive\nBits/(Pixel*Frame)               : 0.167\nStream size                      : 1.91 GiB (81%)\nWriting library                  : XviD 1.1.2 (UTC 2006-11-01)\n\nAudio:\n\nFormat                           : AC-3\nFormat/Info                      : Audio Coding 3\nMode extension                   : CM (complete main)\nCodec ID                         : 2000\nDuration                         : 2h 38mn\nBit rate mode                    : Constant\nBit rate                         : 384 Kbps\nChannel(s)                       : 6 channels\nChannel positions                : Front: L C R, Side: L R, LFE\nSampling rate                    : 48.0 KHz\nBit depth                        : 16 bits\nStream size                      : 435 MiB (18%)\nAlignment                        : Aligned on interleaves\nInterleave, duration             : 32 ms (0.80 video frame)\nInterleave, preload duration     : 1280 ms\n","torrent":{"xt":"urn:btih:8ded46c18d597d3d21b2502cc5f3d3c7912b0e7e","amp;dn":"Once+upon+a+Time+in+the+West%2C+C%5C%27era+una+Volta+il+West+1968+DVD9","amp;tr":["udp%3A%2F%2Ftracker.openbittorrent.com%3A80","udp%3A%2F%2Fopen.demonii.com%3A1337","udp%3A%2F%2Ftracker.coppersurfer.tk%3A6969","udp%3A%2F%2Fexodus.desync.com%3A6969"],"infoHash":"8ded46c18d597d3d21b2502cc5f3d3c7912b0e7e","infoHashBuffer":{"type":"Buffer","data":[141,237,70,193,141,89,125,61,33,178,80,44,197,243,211,199,145,43,14,126]},"announce":[],"urlList":[]}}